<svg xmlns="http://www.w3.org/2000/svg" xmlns:xlink="http://www.w3.org/1999/xlink" viewBox="0 0 500 200"><defs><style>.cls-1{fill:url(#linear-gradient);}.cls-2{fill:#005faf;stroke:#005faf;}</style><linearGradient id="linear-gradient" y1="100" x2="500" y2="100" gradientUnits="userSpaceOnUse"><stop offset="0" stop-color="#eceff1"/><stop offset="1" stop-color="#fafafa"/></linearGradient></defs><title>bank-bca</title><g id="Layer_2" data-name="Layer 2"><g id="Layer_1-2" data-name="Layer 1"><rect class="cls-1" width="500" height="200" rx="100" ry="100"/><path class="cls-2" d="M264.43,97.46c21.3-9.66,24.45-41.18-5.85-41.18H223.51l-13,25.42h6.1l-15.51,60.76h40.67C271.48,142.71,284.83,107.77,264.43,97.46Zm-22.63,22.88H231.64l3.81-13.73h9.66C256.55,108.9,249.44,120.85,241.81,120.34Zm6.1-29.23h-8.64l2.54-11.95h9.66C260.8,81.45,252.74,91.62,247.91,91.11Z"/><path id="path3262" class="cls-2" d="M347.71,88.75,361,65.24l-18-9.4-2.35,2.9c-9.72-5.15-60.63,2-63.82,52.18,1.91,42.13,49.11,34.55,53.74,31.88l13-26.84c-12.72,8.38-38.75,12.4-39.85-12.76C306,82.44,330.49,74.7,347.71,88.75Z"/><path class="cls-2" d="M414.17,56.28H373.23l-13,24.66h6.69L336,142.46h29.87L372,127.62h18.33l.46,14.84h27.49Zm-33.82,51.36,10-23.93.46,23.93Z"/><path class="cls-2" d="M177.33,57.44a96.31,96.31,0,0,0-85.49-.6c-13.35,23.5-13.77,56.37,0,85.49,28.52,14.43,60.05,13.48,85.69.6C189.58,118.21,191.57,88.46,177.33,57.44ZM176,141.57c-24.65,12.38-55,13.3-82.4-.58-13.24-28-12.83-59.61,0-82.2a92.6,92.6,0,0,1,82.2.58C189.47,89.2,187.56,117.8,176,141.57Z"/><path id="path3357" class="cls-2" d="M126.24,127.62h1.86s1.13-7.43-6.75-13.07c-5-3.56-19.28-4.32-21.57-9-4.61,6.89-.86,14.85,4.3,16.69C112.31,125.29,122.58,116.41,126.24,127.62Z"/><path id="path3359" class="cls-2" d="M139.83,127.62h1.72c5.2-12.11,14.84.44,24.89-6.77,4-2.9,5.44-8.56,1.56-15.27C165.76,112.35,141.24,108.11,139.83,127.62Z"/><path id="path3365" class="cls-2" d="M133,127.62h2.15c0-8.15-1.51-21.53,2.46-31.75,4.86-9.53,8.77-8.16,12.67-17.72,2.27-9.57-1.82-19.85-15.13-21.21-15.36.83-19.93,11.55-17.24,21.46,1.7,6.26,9.35,9.75,12.37,17.5C134.23,106.13,132.77,120,133,127.62Z"/><path id="path3371" class="cls-2" d="M129.84,127.62c-.4-4.45-1.46-8.19-3.74-11.05C115.64,103.45,94.25,113.33,99.75,91c2.86-11.4,35.45-18.12,31.71,36.57Z"/><path id="path3231" class="cls-2" d="M136.54,127.7h1.91a17.45,17.45,0,0,1,6.46-14.24c11.15-8.1,28.54-2.68,23.14-22.43-3.94-9.84-21.73-13.71-29.5,8.17C136.22,105.78,136.42,114.87,136.54,127.7Z"/><path id="path3233" class="cls-2" d="M108.75,136.77l2.58.86-1.24,4.3-1.05-.29.1-.67c-1.29.59-3.64.15-3.92-1.34-.28-1.19.56-4.81,1.91-6.49s4.51,0,4.58,1a6,6,0,0,1-.31,2.1l-1.2-.23s.07-.36.18-.92-1.44-1.19-1.91-.57a10.41,10.41,0,0,0-1.43,4.2c-.13,1.7,1.5,1.34,1.91,1.15s.57-1.53.57-1.53l-1.15-.38Z"/><path class="cls-2" d="M119.85,137.39c-.09-1.35-.49-2.61-5-3.1L113,142.61l1.74.33.85-3.47c3.06,0,1.51,2.65,1.33,4l1.58.38c0-1.49,1.06-3.51,0-4.46C119.39,139.17,119.67,138.43,119.85,137.39Zm-1.69.16c-.52,1.16-1.44.52-2.23.49l.49-2C118.23,136.1,118.2,136.82,118.16,137.55Z"/><path id="path3243" class="cls-2" d="M122.53,135.63l1.64.26-.72,5.85c.09,1.94,2,1.82,2.41.41l.77-6.1,1.39.1-.62,6.72c-.62,3-5,2.56-5.59-.26Z"/><path id="path3235" class="cls-2" d="M130.32,145.12l.46-8.77c3.2.07,5,.51,5,2.77-.19,3.09-2.69,2.4-3.85,2.36l-.31,3.69Zm2.05-7.18-.31,2.15c.79-.08,1.77.61,2.15-.92C134.19,138,133.29,137.91,132.38,137.94Z"/><path id="path3240" class="cls-2" d="M142.84,144.81l-1.39-8.46c.72-.12,4.23-1.4,5.08.92a2.31,2.31,0,0,1-.51,2.57,2.31,2.31,0,0,1,1.49,1.85c.07,1.28-.36,2.13-1.18,2.41Zm.36-7.54.41,2.21c1-.22,1.52-.82,1.44-1.59C144.92,137.3,144.43,136.87,143.2,137.27Zm.77,3.85.36,2.26c.84,0,1.61-.48,1.39-1.54S144.65,141,144,141.12Z"/><path id="path3253" class="cls-2" d="M152.79,137l1.49-.26c-.31-1.08-.11-2.63-3.54-2.1-2.09.48-1.48,3.11-1.13,5.59.61,2.9,1,3.34,3.28,3.18,1-.2,2.44-.5,2.05-3.44l-1.49.21c.16.78.34,1.38-.51,2-.74.09-1.06.27-1.54-.67l-.77-4.05a1.38,1.38,0,0,1,.82-1.69C152.21,135.71,152.56,136.08,152.79,137Z"/><path id="path3255" class="cls-2" d="M157.41,142.19l-.46-8.82,1.74-.46,4.31,7.28-1.18.77-1.44-2.05-1.64.62.15,2.15Zm.92-6.72.15,2.87,1.59-.46Z"/></g></g></svg>