<svg xmlns="http://www.w3.org/2000/svg" xmlns:xlink="http://www.w3.org/1999/xlink" width="1440" height="498" viewBox="0 0 1440 498"><defs><style>.a{fill:#fff;stroke:#707070;}.b{clip-path:url(#a);}.c{opacity:0.66;}.c,.e,.f{clip-path:url(#b);}.d{fill:url(#c);}.f{opacity:0.82;}.g{fill:url(#g);}</style><clipPath id="a"><rect class="a" width="1440" height="498" transform="translate(0 3890)"/></clipPath><clipPath id="b"><rect class="a" width="1440" height="475" transform="translate(2201 4599)"/></clipPath><linearGradient id="c" x1="0.271" y1="0.601" x2="0.664" y2="0.612" gradientUnits="objectBoundingBox"><stop offset="0" stop-color="#d06232"/><stop offset="1" stop-color="#d0333a"/></linearGradient><linearGradient id="g" x1="0.271" y1="0.601" x2="0.664" y2="0.612" gradientUnits="objectBoundingBox"><stop offset="0" stop-color="#2c3e50"/><stop offset="1" stop-color="#e66748"/></linearGradient></defs><g class="b" transform="translate(0 -3890)"><g transform="translate(-2201 -657)"><g class="c" transform="translate(0 -52)"><path class="d" d="M2169.953,3975.505s197.482-1.176,353.822,39.967,266.037,24.546,382.224,0,275.473,18.753,423.627,71.615,353.182,3.616,353.182,3.616l3.526,360.875H2135.57V3975.505Z" transform="translate(10 622)"/></g><g class="e"><path class="d" d="M2169.953,3975.505s197.482-1.176,353.822,39.967,266.037,24.546,382.224,0,275.473,18.753,423.627,71.615,353.182,3.616,353.182,3.616l3.526,360.875H2135.57V3975.505Z" transform="translate(10 622)"/></g><g class="f" transform="translate(0 -30)"><path class="g" d="M2169.953,3975.505s197.482-1.176,353.822,39.967,266.037,24.546,382.224,0,275.473,18.753,423.627,71.615,353.182,3.616,353.182,3.616l3.526,360.875H2135.57V3975.505Z" transform="translate(10 622)"/></g></g></g></svg>