<svg xmlns="http://www.w3.org/2000/svg" width="44.896" height="44.907" viewBox="0 0 44.896 44.907"><defs><style>.a{fill:#2c3e50;}</style></defs><g transform="translate(0 21.05)"><path class="a" d="M6.628,240H1.365a1.316,1.316,0,0,0,0,2.631H6.628A1.316,1.316,0,0,0,6.628,240Z" transform="translate(-0.06 -240)"/></g><g transform="translate(0 34.382)"><path class="a" d="M6.628,392H1.365a1.316,1.316,0,0,0,0,2.631H6.628A1.316,1.316,0,0,0,6.628,392Z" transform="translate(-0.06 -392)"/></g><g transform="translate(21.232 10.525)"><path class="a" d="M248.716,125.263a1.3,1.3,0,0,0,1.3-1.316v-2.631a1.3,1.3,0,0,0-1.3-1.316,6.585,6.585,0,0,0-6.578,6.578v10.7a6.585,6.585,0,0,0,6.578,6.578,1.3,1.3,0,0,0,1.3-1.316V139.91a1.3,1.3,0,0,0-1.3-1.316,3.951,3.951,0,0,1-3.947-3.947v-5.438A3.951,3.951,0,0,1,248.716,125.263Z" transform="translate(-242.138 -120)"/></g><g transform="translate(39.651 5.263)"><path class="a" d="M453.436,60h-1.3v5.263h5.245V63.947A3.942,3.942,0,0,0,453.436,60Z" transform="translate(-452.138 -60)"/></g><g transform="translate(39.651 13.156)"><rect class="a" width="5.245" height="5.263"/></g><g transform="translate(39.651 29.119)"><path class="a" d="M452.138,332v5.263h1.3a3.942,3.942,0,0,0,3.947-3.947V332Z" transform="translate(-452.138 -332)"/></g><g transform="translate(39.651 21.05)"><rect class="a" width="5.245" height="5.438"/></g><g transform="translate(0 7.894)"><path class="a" d="M6.628,90H1.365a1.316,1.316,0,0,0,0,2.631H6.628A1.316,1.316,0,0,0,6.628,90Z" transform="translate(-0.06 -90)"/></g><g transform="translate(3.954)"><path class="a" d="M72.924,0H49.067a3.932,3.932,0,0,0-3.929,3.947V5.263h2.614c5.219,0,5.219,7.894,0,7.894H45.138v5.263h2.614c5.219,0,5.219,7.894,0,7.894H45.138V31.75h2.614c5.219,0,5.219,7.894,0,7.894H45.138V40.96a3.932,3.932,0,0,0,3.929,3.947H72.924a5.263,5.263,0,0,0,5.262-5.263V5.263A5.263,5.263,0,0,0,72.924,0Zm.035,32.96a4.1,4.1,0,0,1-4.223,4.05A9.22,9.22,0,0,1,59.768,27.8V17.1A9.22,9.22,0,0,1,68.736,7.9a4.084,4.084,0,0,1,4.206,4.05v2.525a3.956,3.956,0,0,1-3.909,3.946,1.318,1.318,0,0,0-1.354,1.306v4.942c0,1.265.6,1.811,1.353,1.822a3.971,3.971,0,0,1,3.927,3.946Z" transform="translate(-45.138)"/></g></svg>