<svg xmlns="http://www.w3.org/2000/svg" width="53.353" height="31.803" viewBox="0 0 53.353 31.803"><defs><style>.a{fill:#2c3e50;}</style></defs><g transform="translate(0 -98.725)"><path class="a" d="M26.676,98.725c-10.194,0-19.438,5.577-26.259,14.636a2.112,2.112,0,0,0,0,2.521c6.821,9.069,16.065,14.646,26.259,14.646s19.438-5.577,26.259-14.636a2.112,2.112,0,0,0,0-2.521C46.114,104.3,36.87,98.725,26.676,98.725Zm.731,27.1a11.222,11.222,0,1,1,10.466-10.466A11.228,11.228,0,0,1,27.407,125.824Zm-.338-5.173a6.042,6.042,0,1,1,5.642-5.642A6.032,6.032,0,0,1,27.069,120.651Z" transform="translate(0)"/></g></svg>