<svg xmlns="http://www.w3.org/2000/svg" width="26.866" height="26.866" viewBox="0 0 26.866 26.866"><defs><style>.a{fill:#fff;fill-rule:evenodd;}</style></defs><path class="a" d="M13.433,2.388a41.188,41.188,0,0,1,5.373.149,6.923,6.923,0,0,1,2.537.448,5.242,5.242,0,0,1,2.537,2.537,6.923,6.923,0,0,1,.448,2.537c0,1.343.149,1.791.149,5.373a41.188,41.188,0,0,1-.149,5.373,6.923,6.923,0,0,1-.448,2.537,5.242,5.242,0,0,1-2.537,2.537,6.923,6.923,0,0,1-2.537.448c-1.343,0-1.791.149-5.373.149a41.188,41.188,0,0,1-5.373-.149,6.923,6.923,0,0,1-2.537-.448,5.242,5.242,0,0,1-2.537-2.537,6.923,6.923,0,0,1-.448-2.537c0-1.343-.149-1.791-.149-5.373A41.188,41.188,0,0,1,2.537,8.06a6.923,6.923,0,0,1,.448-2.537A5.36,5.36,0,0,1,4.03,4.03,2.523,2.523,0,0,1,5.522,2.985,6.923,6.923,0,0,1,8.06,2.537a41.188,41.188,0,0,1,5.373-.149m0-2.388A44.1,44.1,0,0,0,7.91.149a9.214,9.214,0,0,0-3.284.6A5.843,5.843,0,0,0,2.239,2.239,5.843,5.843,0,0,0,.746,4.627a6.8,6.8,0,0,0-.6,3.284A44.1,44.1,0,0,0,0,13.433a44.1,44.1,0,0,0,.149,5.522,9.214,9.214,0,0,0,.6,3.284,5.843,5.843,0,0,0,1.493,2.388,5.843,5.843,0,0,0,2.388,1.493,9.214,9.214,0,0,0,3.284.6,44.1,44.1,0,0,0,5.522.149,44.1,44.1,0,0,0,5.522-.149,9.214,9.214,0,0,0,3.284-.6,6.262,6.262,0,0,0,3.881-3.881,9.214,9.214,0,0,0,.6-3.284c0-1.493.149-1.94.149-5.522a44.1,44.1,0,0,0-.149-5.522,9.214,9.214,0,0,0-.6-3.284,5.843,5.843,0,0,0-1.493-2.388A5.843,5.843,0,0,0,22.239.746a9.214,9.214,0,0,0-3.284-.6A44.1,44.1,0,0,0,13.433,0m0,6.567a6.755,6.755,0,0,0-6.866,6.866,6.866,6.866,0,1,0,6.866-6.866m0,11.343a4.4,4.4,0,0,1-4.478-4.478,4.4,4.4,0,0,1,4.478-4.478,4.4,4.4,0,0,1,4.478,4.478,4.4,4.4,0,0,1-4.478,4.478M20.6,4.627a1.642,1.642,0,1,0,1.642,1.642A1.656,1.656,0,0,0,20.6,4.627"/></svg>