<svg xmlns="http://www.w3.org/2000/svg" width="27.993" height="27.993" viewBox="0 0 27.993 27.993"><defs><style>.a{fill:#fff;}</style></defs><path class="a" d="M27.993,13.636A13.767,13.767,0,0,1,7.608,25.577L0,27.993l2.48-7.318A13.5,13.5,0,0,1,.509,13.635a13.742,13.742,0,0,1,27.483,0ZM14.249,2.174A11.521,11.521,0,0,0,2.7,13.639a11.341,11.341,0,0,0,2.2,6.72L3.455,24.615l4.438-1.41A11.566,11.566,0,0,0,25.8,13.636,11.521,11.521,0,0,0,14.249,2.174Zm6.941,14.6c-.086-.138-.31-.222-.646-.39s-1.994-.976-2.3-1.085-.535-.169-.759.166-.868,1.087-1.066,1.312-.393.252-.729.087a9.287,9.287,0,0,1-2.71-1.659A10.056,10.056,0,0,1,11.1,12.893c-.2-.334-.02-.515.147-.681.151-.151.337-.391.506-.587a2.228,2.228,0,0,0,.337-.556.622.622,0,0,0-.028-.587c-.084-.168-.757-1.811-1.039-2.48s-.56-.558-.758-.558-.421-.027-.645-.027a1.233,1.233,0,0,0-.9.416,3.74,3.74,0,0,0-1.178,2.788,6.462,6.462,0,0,0,1.375,3.457c.17.222,2.331,3.708,5.755,5.046s3.426.891,4.043.834a3.4,3.4,0,0,0,2.273-1.587A2.777,2.777,0,0,0,21.19,16.777Z"/></svg>