<svg xmlns="http://www.w3.org/2000/svg" width="44.907" height="39.473" viewBox="0 0 44.907 39.473"><defs><style>.a{fill:#2c3e50;}</style></defs><g transform="translate(0 0.428)"><path class="a" d="M.827,40.785A1.314,1.314,0,0,0,0,42.006V73.581A1.317,1.317,0,0,0,1.8,74.8l11.352-4.541V35.853ZM8.243,59.594l-.416,1.248a1.316,1.316,0,0,1-2.5-.833l.416-1.248A1.316,1.316,0,0,1,8.243,59.594Zm2.767-6.474a6.237,6.237,0,0,0-1.161,1.756A1.317,1.317,0,0,1,7.444,53.8a9,9,0,0,1,1.65-2.486A1.316,1.316,0,0,1,11.011,53.12Z" transform="translate(0 -35.853)"/></g><g transform="translate(15.787 0.371)"><path class="a" d="M191.3,56.3a6.353,6.353,0,0,0,2.035.522V39.59L180,35.205V47.958a9.178,9.178,0,0,1,1.508.137,1.316,1.316,0,0,1-.478,2.588,9.128,9.128,0,0,0-1.03-.091V69.552l13.332,4.386V59.425a7.918,7.918,0,0,1-3.1-.724A1.316,1.316,0,0,1,191.3,56.3Zm-5.525-2.025a6.524,6.524,0,0,0-.974-1.539,1.315,1.315,0,0,1,2-1.709,9.122,9.122,0,0,1,1.362,2.14C189.147,55.195,186.777,56.338,185.772,54.271Z" transform="translate(-180 -35.205)"/></g><g transform="translate(31.75 0)"><path class="a" d="M373.352,31.074,362,35.615V70.024l12.329-4.931a1.314,1.314,0,0,0,.827-1.222V32.3A1.317,1.317,0,0,0,373.352,31.074Zm-6.3,21.086a8.709,8.709,0,0,1-2.2,2.027,1.316,1.316,0,0,1-1.429-2.21,6.107,6.107,0,0,0,1.539-1.418A1.315,1.315,0,0,1,367.052,52.16Zm2.757-6.245-.463,1.232a1.315,1.315,0,0,1-2.462-.925l.463-1.232A1.315,1.315,0,0,1,369.809,45.915Z" transform="translate(-362 -30.978)"/></g></svg>